<svg id="Layer_1" enable-background="new 0 0 512 512" height="20" viewBox="0 0 512 512" width="20" xmlns="http://www.w3.org/2000/svg"><g><path d="m392.01 384.004c-6.049 0-11.836-3.447-14.538-9.299-3.703-8.023-.201-17.529 7.822-21.232.214-.1 24.542-11.588 48.323-34.69 30.778-29.899 46.383-64.48 46.383-102.783 0-39.142 0-112-24-112-4.038 0-14.92 6.725-30.098 31.929-11.248 18.679-18.972 37.829-19.049 38.021-3.289 8.198-12.601 12.185-20.801 8.9-8.2-3.284-12.188-12.589-8.908-20.792.346-.865 8.62-21.43 21.136-42.29 19.286-32.143 38.166-47.768 57.72-47.768 14.563 0 27.011 6.441 36 18.626 6.686 9.063 11.49 21.242 14.689 37.236 5.311 26.554 5.311 59.272 5.311 88.138 0 46.98-19.679 90.734-56.91 126.533-27.623 26.561-55.224 39.458-56.385 39.994-2.171 1.002-4.451 1.477-6.695 1.477z" fill="#cecccc"/><path d="m119.99 384.004c-2.244 0-4.523-.475-6.695-1.477-1.161-.536-28.762-13.434-56.385-39.994-37.231-35.799-56.91-79.553-56.91-126.533 0-28.866 0-61.584 5.311-88.138 3.198-15.993 8.003-28.173 14.689-37.236 8.989-12.185 21.437-18.626 36-18.626 19.554 0 38.434 15.625 57.72 47.768 12.516 20.859 20.79 41.424 21.136 42.29 3.282 8.205-.708 17.516-8.913 20.798-8.202 3.283-17.51-.707-20.795-8.906-.077-.191-7.801-19.341-19.049-38.021-15.179-25.204-26.061-31.929-30.099-31.929-24 0-24 72.858-24 112 0 92.69 93.758 137.036 94.705 137.473 8.023 3.703 11.525 13.209 7.822 21.232-2.7 5.852-8.489 9.298-14.537 9.299z" fill="#cecccc"/><path d="m408 168v200c0 5.89-3.23 11.3-8.41 14.09l-75.83 40.83c-20.75 11.17-44.19 17.08-67.76 17.08-5.35 0-10.69-.31-16-.91-18.07-2.04-35.71-7.54-51.76-16.17l-75.83-40.83c-5.18-2.79-8.41-8.2-8.41-14.09v-200c0-6.24 3.63-11.91 9.29-14.53l74.95-34.59c16.26-7.5 33.9-12.27 51.76-14.07 5.32-.54 10.67-.81 16-.81 23.23 0 46.66 5.15 67.76 14.88l74.95 34.59c5.66 2.62 9.29 8.29 9.29 14.53z" fill="#e2e0e0"/><path d="m408 168v200c0 5.89-3.23 11.3-8.41 14.09l-75.83 40.83c-20.75 11.17-44.19 17.08-67.76 17.08-5.35 0-10.68-.31-15.99-.91 18.07-2.05 35.71-7.54 51.75-16.17l75.83-40.83c5.18-2.79 8.41-8.2 8.41-14.09v-200c0-6.24-3.63-11.91-9.29-14.53l-74.95-34.59c-16.26-7.5-33.9-12.27-51.76-14.07 5.32-.54 10.67-.81 16-.81 23.23 0 46.66 5.15 67.76 14.88l74.95 34.59c5.66 2.62 9.29 8.29 9.29 14.53z" fill="#cecccc"/></g></svg>
